<svg width="122" height="35" viewBox="0 0 122 35" fill="none" xmlns="http://www.w3.org/2000/svg">
<path d="M57 30V20.56H57.48V30H57ZM57.96 30V20.56H58.44V30H57.96ZM59.4 30V20.56H61.32V30H59.4ZM62.2812 30V20.56H62.7613V30H62.2812ZM63.2413 30V20.56H64.2013V30H63.2413ZM65.1613 30V20.56H65.6413V30H65.1613ZM67.5625 30V20.56H68.0425V30H67.5625ZM69.0025 30V20.56H69.4825V30H69.0025ZM69.9625 30V20.56H70.9225V30H69.9625ZM72.8438 30V20.56H73.3238V30H72.8438ZM75.2438 30V20.56H75.7238V30H75.2438ZM76.2038 30V20.56H77.1638V30H76.2038ZM78.125 30V20.56H78.605V30H78.125ZM79.085 30V20.56H80.045V30H79.085ZM81.005 30V20.56H81.485V30H81.005ZM83.4062 30V20.56H83.8863V30H83.4062ZM84.8463 30V20.56H85.3263V30H84.8463ZM85.8063 30V20.56H86.7663V30H85.8063ZM88.6875 30V20.56H89.6475V30H88.6875ZM91.5675 30V20.56H92.0475V30H91.5675ZM92.5275 30V20.56H93.0075V30H92.5275ZM93.9688 30V20.56H94.4488V30H93.9688ZM96.3688 30V20.56H96.8488V30H96.3688ZM97.8088 30V20.56H98.7688V30H97.8088ZM99.25 30V20.56H100.21V30H99.25ZM101.17 30V20.56H101.65V30H101.17ZM102.13 30V20.56H102.61V30H102.13ZM104.531 30V20.56H105.011V30H104.531ZM106.451 30V20.56H108.371V30H106.451ZM108.851 30V20.56H109.331V30H108.851ZM109.812 30V20.56H111.733V30H109.812ZM112.213 30V20.56H112.693V30H112.213ZM113.653 30V20.56H114.133V30H113.653ZM115.094 30V20.56H115.574V30H115.094ZM116.054 30V20.56H117.014V30H116.054ZM117.974 30V20.56H118.454V30H117.974Z" fill="#64FF99"/>
<path d="M1.248 25.36C7.09333 25.68 11.0507 25.84 13.12 25.84C13.6107 25.84 13.9947 25.7013 14.272 25.424C14.5707 25.1253 14.72 24.7307 14.72 24.24V21.36H7.36C5.12 21.36 3.488 20.8587 2.464 19.856C1.46133 18.832 0.96 17.2 0.96 14.96V14C0.96 11.76 1.46133 10.1387 2.464 9.136C3.488 8.112 5.12 7.6 7.36 7.6H18.592V12.08H8.64C7.36 12.08 6.72 12.72 6.72 14V14.64C6.72 15.92 7.36 16.56 8.64 16.56H14.4C16.4907 16.56 18.0267 17.0507 19.008 18.032C19.9893 19.0133 20.48 20.5493 20.48 22.64V24.24C20.48 26.3307 19.9893 27.8667 19.008 28.848C18.0267 29.8293 16.4907 30.32 14.4 30.32C13.312 30.32 12.16 30.2987 10.944 30.256L8 30.128C5.824 30.0213 3.57333 29.872 1.248 29.68V25.36ZM30.0775 13.68V30H24.4775V18H22.0775V13.68H30.0775ZM24.4775 7.28H30.0775V11.76H24.4775V7.28ZM33.6075 7.6H46.4075C48.4982 7.6 50.0342 8.08 51.0155 9.04C51.9968 9.97867 52.4875 11.4187 52.4875 13.36C52.4875 14.64 52.2102 15.6853 51.6555 16.496C51.1008 17.2853 50.4182 17.84 49.6075 18.16C51.3355 18.6293 52.5088 19.7813 53.1275 21.616C53.3408 22.2773 53.4475 23.0453 53.4475 23.92C53.4475 26.0107 52.9568 27.5467 51.9755 28.528C50.9942 29.5093 49.4582 30 47.3675 30H33.6075V7.6ZM47.6875 22.96C47.6875 21.68 47.0475 21.04 45.7675 21.04H39.3675V25.52H45.7675C47.0475 25.52 47.6875 24.88 47.6875 23.6V22.96ZM46.7275 14C46.7275 12.72 46.0875 12.08 44.8075 12.08H39.3675V16.56H44.8075C46.0875 16.56 46.7275 15.92 46.7275 14.64V14Z" fill="#64FF99"/>
</svg>
