<svg width="220" height="31" viewBox="0 0 220 31" fill="none" xmlns="http://www.w3.org/2000/svg">
<path d="M5.152 2.18H12.18V4.196H7.392V26.232H12.18V28.22H5.152V2.18ZM21.2971 20.072L19.7571 25H17.3491L23.6491 5.708H26.7291L33.0011 25H30.4811L28.9411 20.072H21.2971ZM28.2971 18.056L25.1331 7.78L21.9411 18.056H28.2971ZM36.3781 10.244H38.3941L38.5901 12.316C39.1688 11.5693 39.8968 10.9907 40.7741 10.58C41.6701 10.1507 42.5661 9.936 43.4621 9.936C46.2248 9.936 47.6061 11.392 47.6061 14.304V25H45.2541V16.04C45.2541 14.9387 45.1888 14.0987 45.0581 13.52C44.9461 12.9413 44.7128 12.512 44.3581 12.232C44.0035 11.952 43.4621 11.812 42.7341 11.812C41.9315 11.812 41.1755 12.0547 40.4661 12.54C39.7568 13.0253 39.1781 13.604 38.7301 14.276V25H36.3781V10.244ZM64.3672 4.308V25H62.2952L62.0712 23.068C61.5299 23.8147 60.9045 24.3747 60.1952 24.748C59.4859 25.1213 58.7205 25.308 57.8992 25.308C56.0325 25.308 54.6232 24.6267 53.6712 23.264C52.7379 21.9013 52.2712 20.0253 52.2712 17.636C52.2712 16.1613 52.5045 14.8453 52.9712 13.688C53.4379 12.512 54.1005 11.5973 54.9592 10.944C55.8365 10.272 56.8632 9.936 58.0392 9.936C59.6632 9.936 60.9885 10.524 62.0152 11.7V4.028L64.3672 4.308ZM58.6552 11.84C57.4232 11.84 56.4712 12.3253 55.7992 13.296C55.1459 14.2667 54.8192 15.7133 54.8192 17.636C54.8192 19.54 55.1179 20.9867 55.7152 21.976C56.3312 22.9467 57.2179 23.432 58.3752 23.432C59.7752 23.432 60.9885 22.648 62.0152 21.08V13.744C61.6045 13.128 61.1099 12.6613 60.5312 12.344C59.9525 12.008 59.3272 11.84 58.6552 11.84ZM79.9243 9.936C80.5216 9.936 81.2123 10.0387 81.9963 10.244L81.6603 15.256H79.7563V12.092H79.6163C77.3389 12.092 75.7243 13.716 74.7723 16.964V23.18H77.7683V25H70.0963V23.18H72.4203V12.064H70.0963V10.244H74.1843L74.6323 13.744C75.2296 12.4747 75.9389 11.5227 76.7603 10.888C77.6003 10.2533 78.6549 9.936 79.9243 9.936ZM88.6213 18.448C88.6773 20.072 89.0973 21.2947 89.8813 22.116C90.684 22.9373 91.692 23.348 92.9053 23.348C93.6333 23.348 94.296 23.2453 94.8933 23.04C95.5093 22.816 96.1626 22.48 96.8533 22.032L97.9453 23.6C97.2546 24.1413 96.4613 24.5613 95.5653 24.86C94.688 25.1587 93.8013 25.308 92.9053 25.308C90.7773 25.308 89.116 24.6173 87.9213 23.236C86.7453 21.836 86.1573 19.9693 86.1573 17.636C86.1573 16.1613 86.4186 14.8453 86.9413 13.688C87.464 12.512 88.2106 11.5973 89.1813 10.944C90.152 10.272 91.2813 9.936 92.5693 9.936C94.436 9.936 95.9013 10.5893 96.9653 11.896C98.048 13.184 98.5893 14.948 98.5893 17.188C98.5893 17.6173 98.5706 18.0373 98.5333 18.448H88.6213ZM92.5973 11.868C91.4586 11.868 90.5346 12.2787 89.8253 13.1C89.116 13.9027 88.7146 15.088 88.6213 16.656H96.2933C96.2746 15.1067 95.9386 13.9213 95.2853 13.1C94.632 12.2787 93.736 11.868 92.5973 11.868ZM111.15 25L109.218 14.192L107.146 25H103.898L101.238 10.244H103.618L105.522 23.544L107.874 12.12H110.646L112.858 23.544L114.762 10.244H117.03L114.482 25H111.15ZM149.349 19.652C149.349 20.772 149.069 21.7613 148.509 22.62C147.949 23.46 147.137 24.1227 146.073 24.608C145.009 25.0747 143.749 25.308 142.293 25.308C140.893 25.308 139.614 25.1027 138.457 24.692C137.318 24.2627 136.338 23.656 135.517 22.872L136.973 21.22C137.682 21.892 138.466 22.4053 139.325 22.76C140.202 23.1147 141.201 23.292 142.321 23.292C143.59 23.292 144.654 22.984 145.513 22.368C146.371 21.752 146.801 20.8653 146.801 19.708C146.801 19.0547 146.679 18.5133 146.437 18.084C146.194 17.6547 145.765 17.272 145.149 16.936C144.551 16.6 143.702 16.2733 142.601 15.956C140.51 15.34 138.951 14.6213 137.925 13.8C136.898 12.96 136.385 11.8213 136.385 10.384C136.385 9.432 136.646 8.57333 137.169 7.808C137.691 7.04267 138.429 6.45467 139.381 6.044C140.333 5.61467 141.415 5.4 142.629 5.4C143.898 5.4 145.027 5.58667 146.017 5.96C147.025 6.33333 147.949 6.884 148.789 7.612L147.333 9.18C146.007 8.02267 144.467 7.444 142.713 7.444C141.593 7.444 140.669 7.68667 139.941 8.172C139.213 8.65733 138.849 9.36667 138.849 10.3C138.849 10.86 138.998 11.336 139.297 11.728C139.595 12.12 140.09 12.484 140.781 12.82C141.471 13.156 142.442 13.5013 143.693 13.856C145.503 14.3787 146.894 15.06 147.865 15.9C148.854 16.74 149.349 17.9907 149.349 19.652ZM159.502 3.356C160.024 3.356 160.444 3.51467 160.762 3.832C161.079 4.13067 161.238 4.52267 161.238 5.008C161.238 5.49333 161.079 5.89467 160.762 6.212C160.444 6.51067 160.024 6.66 159.502 6.66C158.998 6.66 158.587 6.51067 158.27 6.212C157.971 5.89467 157.822 5.49333 157.822 5.008C157.822 4.52267 157.971 4.13067 158.27 3.832C158.587 3.51467 158.998 3.356 159.502 3.356ZM161.378 23.124H165.522V25H154.49V23.124H159.026V12.12H154.63V10.244H161.378V23.124ZM173.043 12.176C174.181 10.6827 175.591 9.936 177.271 9.936C179.156 9.936 180.547 10.608 181.443 11.952C182.339 13.296 182.787 15.1813 182.787 17.608C182.787 19.9227 182.273 21.7893 181.247 23.208C180.22 24.608 178.783 25.308 176.935 25.308C175.236 25.308 173.901 24.692 172.931 23.46L172.763 25H170.691V4.308L173.043 4.028V12.176ZM176.403 23.404C177.635 23.404 178.577 22.9187 179.231 21.948C179.903 20.9773 180.239 19.5307 180.239 17.608C180.239 15.704 179.94 14.2667 179.343 13.296C178.764 12.3253 177.896 11.84 176.739 11.84C175.992 11.84 175.301 12.064 174.667 12.512C174.051 12.96 173.509 13.52 173.043 14.192V21.5C173.435 22.0973 173.92 22.564 174.499 22.9C175.077 23.236 175.712 23.404 176.403 23.404ZM190.588 22.844C190.588 22.1533 190.821 21.5747 191.288 21.108C191.773 20.6227 192.361 20.38 193.052 20.38C193.761 20.38 194.349 20.6227 194.816 21.108C195.282 21.5747 195.516 22.1533 195.516 22.844C195.516 23.5533 195.282 24.1413 194.816 24.608C194.349 25.0747 193.761 25.308 193.052 25.308C192.361 25.308 191.773 25.0747 191.288 24.608C190.821 24.1227 190.588 23.5347 190.588 22.844ZM213.117 28.22H206.089V26.232H210.877V4.196H206.089V2.18H213.117V28.22Z" fill="url(#paint0_linear_1_30)"/>
<defs>
<linearGradient id="paint0_linear_1_30" x1="110" y1="-17.05" x2="110" y2="54" gradientUnits="userSpaceOnUse">
<stop offset="0.565" stop-color="#48B56D"/>
</linearGradient>
</defs>
</svg>
