<svg width="200" height="66" viewBox="0 0 200 66" fill="none" xmlns="http://www.w3.org/2000/svg">
<path d="M4.7 18H0.8L6.1 4H10.1L15.4 18H11.5L10.6 15.5H5.6L4.7 18ZM6.5 12.9H9.7L8.1 8.2L6.5 12.9ZM22.0992 10.1C21.3926 10.1 20.5926 10.2333 19.6992 10.5V18H16.1992V7.4H19.2992L19.4992 8.4C20.1259 7.98667 20.7659 7.68667 21.4192 7.5C22.0859 7.3 22.6459 7.2 23.0992 7.2H23.9992C24.9059 7.2 25.6326 7.47333 26.1792 8.02C26.7259 8.56667 26.9992 9.29333 26.9992 10.2V18H23.4992V10.8C23.4992 10.6 23.4326 10.4333 23.2992 10.3C23.1659 10.1667 22.9992 10.1 22.7992 10.1H22.0992ZM36.2969 18L36.0969 17C35.4702 17.4133 34.8235 17.72 34.1569 17.92C33.5035 18.1067 32.9502 18.2 32.4969 18.2H31.5969C30.6902 18.2 29.9635 17.9267 29.4169 17.38C28.8702 16.8333 28.5969 16.1067 28.5969 15.2V10.6C28.5969 9.6 28.8769 8.82 29.4369 8.26C30.0102 7.68667 30.7969 7.4 31.7969 7.4H35.8969V4H39.3969V18H36.2969ZM33.4969 15.3C34.2035 15.3 35.0035 15.1667 35.8969 14.9V10.1H32.8969C32.3635 10.1 32.0969 10.3667 32.0969 10.9V14.6C32.0969 14.8 32.1635 14.9667 32.2969 15.1C32.4302 15.2333 32.5969 15.3 32.7969 15.3H33.4969ZM47.4945 10.3C46.6545 10.3 45.7879 10.5 44.8945 10.9V18H41.3945V7.4H44.4945L44.6945 8.7C45.8412 7.7 47.0412 7.2 48.2945 7.2H49.1945V10.3H47.4945ZM54.3031 9.7C53.7698 9.7 53.5031 9.96667 53.5031 10.5V11.6H56.9031V10.5C56.9031 9.96667 56.6365 9.7 56.1031 9.7H54.3031ZM60.0031 17.8C57.4298 18.0667 55.0965 18.2 53.0031 18.2C52.0965 18.2 51.3698 17.9267 50.8231 17.38C50.2765 16.8333 50.0031 16.1067 50.0031 15.2V10.4C50.0031 9.4 50.2831 8.62 50.8431 8.06C51.4165 7.48667 52.2031 7.2 53.2031 7.2H57.2031C58.2031 7.2 58.9831 7.48667 59.5431 8.06C60.1165 8.62 60.4031 9.4 60.4031 10.4V14.1H53.5031V14.9C53.5031 15.1 53.5698 15.2667 53.7031 15.4C53.8365 15.5333 54.0031 15.6 54.2031 15.6C55.5231 15.6 57.4565 15.5 60.0031 15.3V17.8ZM73.2 13.8L75 7.4H78.8L75.5 18H71.8L69.8 11.6L67.8 18H64.1L60.8 7.4H64.6L66.4 13.8L68.2 7.4H71.4L73.2 13.8Z" fill="#22BA95"/>
<path d="M40 49V40.74H40.42V49H40ZM40.84 49V40.74H41.26V49H40.84ZM42.1 49V40.74H43.78V49H42.1ZM44.6211 49V40.74H45.0411V49H44.6211ZM45.4611 49V40.74H46.3011V49H45.4611ZM47.1411 49V40.74H47.5611V49H47.1411ZM49.2422 49V40.74H49.6622V49H49.2422ZM50.5022 49V40.74H50.9222V49H50.5022ZM51.3422 49V40.74H52.1822V49H51.3422ZM53.8633 49V40.74H54.2833V49H53.8633ZM55.9633 49V40.74H56.3833V49H55.9633ZM56.8033 49V40.74H57.6433V49H56.8033ZM58.4844 49V40.74H58.9044V49H58.4844ZM59.3244 49V40.74H60.1644V49H59.3244ZM61.0044 49V40.74H61.4244V49H61.0044ZM63.1055 49V40.74H63.5255V49H63.1055ZM64.3655 49V40.74H64.7855V49H64.3655ZM65.2055 49V40.74H66.0455V49H65.2055ZM67.7266 49V40.74H68.5666V49H67.7266ZM70.2466 49V40.74H70.6666V49H70.2466ZM71.0866 49V40.74H71.5066V49H71.0866ZM72.3477 49V40.74H72.7677V49H72.3477ZM74.4477 49V40.74H74.8677V49H74.4477ZM75.7077 49V40.74H76.5477V49H75.7077ZM76.9688 49V40.74H77.8088V49H76.9688ZM78.6488 49V40.74H79.0688V49H78.6488ZM79.4888 49V40.74H79.9088V49H79.4888ZM81.5898 49V40.74H82.0098V49H81.5898ZM83.2698 49V40.74H84.9498V49H83.2698ZM85.3698 49V40.74H85.7898V49H85.3698ZM86.2109 49V40.74H87.8909V49H86.2109ZM88.3109 49V40.74H88.7309V49H88.3109ZM89.5709 49V40.74H89.9909V49H89.5709ZM90.832 49V40.74H91.252V49H90.832ZM91.672 49V40.74H92.512V49H91.672ZM93.352 49V40.74H93.772V49H93.352Z" fill="#22BA95"/>
<path d="M152.78 59.1C156.433 59.3 158.907 59.4 160.2 59.4C160.507 59.4 160.747 59.3133 160.92 59.14C161.107 58.9533 161.2 58.7067 161.2 58.4V56.6H156.6C155.2 56.6 154.18 56.2867 153.54 55.66C152.913 55.02 152.6 54 152.6 52.6V52C152.6 50.6 152.913 49.5867 153.54 48.96C154.18 48.32 155.2 48 156.6 48H163.62V50.8H157.4C156.6 50.8 156.2 51.2 156.2 52V52.4C156.2 53.2 156.6 53.6 157.4 53.6H161C162.307 53.6 163.267 53.9067 163.88 54.52C164.493 55.1333 164.8 56.0933 164.8 57.4V58.4C164.8 59.7067 164.493 60.6667 163.88 61.28C163.267 61.8933 162.307 62.2 161 62.2C160.32 62.2 159.6 62.1867 158.84 62.16L157 62.08C155.64 62.0133 154.233 61.92 152.78 61.8V59.1ZM170.798 51.8V62H167.298V54.5H165.798V51.8H170.798ZM167.298 47.8H170.798V50.6H167.298V47.8ZM179.905 54.6C179.905 54.4 179.838 54.2333 179.705 54.1C179.571 53.9667 179.405 53.9 179.205 53.9H178.705C178.145 53.9 177.658 53.9267 177.245 53.98C176.845 54.0333 176.531 54.0733 176.305 54.1V59.3H179.105C179.638 59.3 179.905 59.0333 179.905 58.5V54.6ZM176.305 51.6C177.598 51.3333 178.731 51.2 179.705 51.2H180.405C181.311 51.2 182.038 51.4733 182.585 52.02C183.131 52.5667 183.405 53.2933 183.405 54.2V58.8C183.405 59.8 183.118 60.5867 182.545 61.16C181.985 61.72 181.205 62 180.205 62H172.805V48H176.305V51.6Z" fill="#22BA95"/>
<path d="M86 13L197 13" stroke="#64FFDA" stroke-width="3" stroke-linecap="square"/>
<path d="M198 13L198 48" stroke="#64FFDA" stroke-width="3" stroke-linecap="square"/>
<path d="M34 55L145 55" stroke="#64FFDA" stroke-width="3" stroke-linecap="square"/>
<path d="M34 31L34 55" stroke="#64FFDA" stroke-width="3" stroke-linecap="square"/>
</svg>
