<svg width="196" height="201" viewBox="0 0 196 201" fill="none" xmlns="http://www.w3.org/2000/svg">
<path d="M58.9443 123.05C79.0376 124.15 92.641 124.7 99.7543 124.7C101.441 124.7 102.761 124.223 103.714 123.27C104.741 122.243 105.254 120.887 105.254 119.2V109.3H79.9543C72.2543 109.3 66.6443 107.577 63.1243 104.13C59.6776 100.61 57.9543 95 57.9543 87.3V84C57.9543 76.3 59.6776 70.7267 63.1243 67.28C66.6443 63.76 72.2543 62 79.9543 62H118.564V77.4H84.3543C79.9543 77.4 77.7543 79.6 77.7543 84V86.2C77.7543 90.6 79.9543 92.8 84.3543 92.8H104.154C111.341 92.8 116.621 94.4867 119.994 97.86C123.368 101.233 125.054 106.513 125.054 113.7V119.2C125.054 126.387 123.368 131.667 119.994 135.04C116.621 138.413 111.341 140.1 104.154 140.1C100.414 140.1 96.4543 140.027 92.2743 139.88L82.1543 139.44C74.6743 139.073 66.9376 138.56 58.9443 137.9V123.05Z" fill="#3BA29C"/>
<path d="M188.5 103.49C188.5 153.166 148.017 193.5 98 193.5C47.9827 193.5 7.5 153.166 7.5 103.49C7.5 53.8142 47.9827 13.48 98 13.48C148.017 13.48 188.5 53.8142 188.5 103.49Z" stroke="#3BA29C" stroke-width="15"/>
<path d="M142.992 114.5V140H134.242V121.25H130.492V114.5H142.992ZM134.242 104.5H142.992V111.5H134.242V104.5Z" fill="#3BA29C"/>
<path d="M7 7V100" stroke="#3BA29C" stroke-width="14" stroke-linecap="square"/>
<path d="M16.462 7.04375V50.8628" stroke="#3BA29C" stroke-width="14" stroke-linecap="square"/>
</svg>
