<svg width="196" height="196" viewBox="0 0 196 196" fill="none" xmlns="http://www.w3.org/2000/svg">
<path d="M58.9443 118.05C79.0376 119.15 92.641 119.7 99.7543 119.7C101.441 119.7 102.761 119.223 103.714 118.27C104.741 117.243 105.254 115.887 105.254 114.2V104.3H79.9543C72.2543 104.3 66.6443 102.577 63.1243 99.13C59.6776 95.61 57.9543 90 57.9543 82.3V79C57.9543 71.3 59.6776 65.7267 63.1243 62.28C66.6443 58.76 72.2543 57 79.9543 57H118.564V72.4H84.3543C79.9543 72.4 77.7543 74.6 77.7543 79V81.2C77.7543 85.6 79.9543 87.8 84.3543 87.8H104.154C111.341 87.8 116.621 89.4867 119.994 92.86C123.368 96.2333 125.054 101.513 125.054 108.7V114.2C125.054 121.387 123.368 126.667 119.994 130.04C116.621 133.413 111.341 135.1 104.154 135.1C100.414 135.1 96.4543 135.027 92.2743 134.88L82.1543 134.44C74.6743 134.073 66.9376 133.56 58.9443 132.9V118.05Z" fill="#3BA29C"/>
<path d="M188.5 98.49C188.5 148.166 148.017 188.5 98 188.5C47.9827 188.5 7.5 148.166 7.5 98.49C7.5 48.8142 47.9827 8.48 98 8.48C148.017 8.48 188.5 48.8142 188.5 98.49Z" stroke="#3BA29C" stroke-width="15"/>
<path d="M142.992 109.5V135H134.242V116.25H130.492V109.5H142.992ZM134.242 99.5H142.992V106.5H134.242V99.5Z" fill="#3BA29C"/>
</svg>
